<svg width="24" height="24" viewBox="0 0 24 24" fill="none" xmlns="http://www.w3.org/2000/svg">
<path fill-rule="evenodd" clip-rule="evenodd" d="M14.752 1.914C14.1917 2.68512 13.8519 3.59423 13.7691 4.5438C13.6863 5.49337 13.8635 6.44758 14.2819 7.30406C14.7002 8.16054 15.3438 8.88697 16.1436 9.40543C16.9435 9.92389 17.8694 10.2148 18.822 10.247V10.258C18.837 10.456 18.852 10.659 18.872 10.855C19.109 13.102 19.649 14.645 20.168 15.658C20.513 16.333 20.852 16.781 21.092 17.052C21.1973 17.1715 21.311 17.2834 21.432 17.387L21.442 17.393C21.5703 17.4861 21.6658 17.6175 21.7148 17.7683C21.7638 17.9191 21.7637 18.0815 21.7146 18.2323C21.6655 18.383 21.5699 18.5143 21.4415 18.6074C21.3131 18.7004 21.1585 18.7503 21 18.75H3C2.8418 18.7498 2.68771 18.6996 2.55977 18.6066C2.43183 18.5135 2.33658 18.3824 2.28766 18.232C2.23873 18.0815 2.23863 17.9195 2.28736 17.769C2.3361 17.6184 2.43117 17.4872 2.559 17.394L2.567 17.387L2.631 17.333C2.691 17.279 2.788 17.188 2.908 17.052C3.148 16.782 3.487 16.334 3.832 15.659C4.522 14.31 5.25 12.03 5.25 8.4C5.25 6.519 5.95 4.706 7.21 3.362C8.472 2.016 10.194 1.25 12 1.25C12.3827 1.25 12.7603 1.28367 13.133 1.351C13.371 1.394 14.151 1.637 14.752 1.914Z" fill="black"/>
<path fill-rule="evenodd" clip-rule="evenodd" d="M15.25 5C15.25 4.00544 15.6451 3.05161 16.3483 2.34835C17.0516 1.64509 18.0054 1.25 19 1.25C19.9946 1.25 20.9484 1.64509 21.6516 2.34835C22.3549 3.05161 22.75 4.00544 22.75 5C22.75 5.99456 22.3549 6.94839 21.6516 7.65165C20.9484 8.35491 19.9946 8.75 19 8.75C18.0054 8.75 17.0516 8.35491 16.3483 7.65165C15.6451 6.94839 15.25 5.99456 15.25 5ZM9.894 20.351C9.97922 20.3016 10.0733 20.2695 10.171 20.2565C10.2686 20.2435 10.3679 20.2498 10.463 20.2752C10.5582 20.3005 10.6475 20.3444 10.7257 20.4042C10.8039 20.4641 10.8696 20.5388 10.919 20.624C11.0289 20.8133 11.1866 20.9704 11.3763 21.0796C11.566 21.1889 11.7811 21.2464 12 21.2464C12.2189 21.2464 12.434 21.1889 12.6237 21.0796C12.8134 20.9704 12.9711 20.8133 13.081 20.624C13.1304 20.5388 13.1962 20.4641 13.2745 20.4043C13.3528 20.3445 13.4421 20.3007 13.5373 20.2754C13.6325 20.2501 13.7318 20.2438 13.8295 20.2568C13.9271 20.2699 14.0213 20.3021 14.1065 20.3515C14.1917 20.4009 14.2664 20.4667 14.3262 20.545C14.386 20.6233 14.4298 20.7126 14.4551 20.8078C14.4804 20.903 14.4867 21.0023 14.4737 21.1C14.4606 21.1976 14.4284 21.2918 14.379 21.377C14.1373 21.7938 13.7903 22.1399 13.3728 22.3804C12.9553 22.6209 12.4819 22.7476 12 22.7476C11.5181 22.7476 11.0447 22.6209 10.6272 22.3804C10.2097 22.1399 9.8627 21.7938 9.621 21.377C9.57146 21.2917 9.53922 21.1975 9.52613 21.0998C9.51304 21.002 9.51935 20.9027 9.54471 20.8074C9.57007 20.7121 9.61397 20.6227 9.67391 20.5444C9.73384 20.4661 9.80863 20.4004 9.894 20.351Z" fill="#AD8945"/>
</svg>
